# xmcd
#
# Track frame offsets: 
#        150
#        15825
#        38992
#        54147
#        69310
#        87520
#        108752
#        124172
#        140190
#        160165
#        175120
#        195395
#        212222
#        226937
#        242752
#        258747
#        274960
#        289227
#
# Disc length: 4147 seconds
#
# Revision: 0
# Processed by: cddbd v1.5.2PL0 Copyright (c) Steve Scherf et al.
# Submitted via: ExactAudioCopy v1.0b3
#
DISCID=00103112
DTITLE=Van McCoy - New Best One
DYEAR=1999
DGENRE=Disco
TTITLE0=The Hustle
TTITLE1=Night Walk
TTITLE2=Love Is The Answer
TTITLE3=Boogie Down
TTITLE4=Good Night, Baby
TTITLE5=Theme From Star Trek
TTITLE6=The Disco Kid
TTITLE7=Fire
TTITLE8=(To Each His Own) That's My Philosophy
TTITLE9=Change With The Times
TTITLE10=Love At First Sight
TTITLE11=The Walk
TTITLE12=Back Stabbers
TTITLE13=You Are The Sunshine Of My Life
TTITLE14=Disco Baby
TTITLE15=Get Dancin'
TTITLE16=Doctor's Orders
TTITLE17=Pick Up The Pieces
EXTD=
EXTT0=
EXTT1=
EXTT2=
EXTT3=
EXTT4=
EXTT5=
EXTT6=
EXTT7=
EXTT8=
EXTT9=
EXTT10=
EXTT11=
EXTT12=
EXTT13=
EXTT14=
EXTT15=
EXTT16=
EXTT17=
PLAYORDER=
